<svg xmlns="http://www.w3.org/2000/svg" viewBox="0 0 1600 1000" role="img" aria-labelledby="title desc">
  <title id="title">ERX Brand System</title>
  <desc id="desc">Premium 3 by 3 brand identity board for Egypt Research Commons</desc>
  <rect width="1600" height="1000" fill="#171a1b"/>
  <g font-family="Arial, sans-serif">
    <g transform="translate(24 24)">
      <rect width="760" height="300" fill="#090b0c"/>
      <g transform="translate(56 54) scale(1.9)"><path d="M18 9h-8v46h8M18 17h20M18 32h20M18 47h20" fill="none" stroke="#eef0e8" stroke-width="4"/><path d="M38 17 51 32 38 47M45 32h8" fill="none" stroke="#57e389" stroke-width="4"/><rect x="49" y="28" width="8" height="8" fill="#57e389"/></g>
      <text x="315" y="112" fill="#57e389" font-family="monospace" font-size="20" letter-spacing="4">ERX</text>
      <text x="315" y="166" fill="#eef0e8" font-size="32" font-weight="900" letter-spacing="-0.5">EGYPT RESEARCH COMMONS</text>
      <text x="315" y="215" fill="#9ca3a8" font-size="26">مرصد مصر البحثي</text>
      <text x="56" y="270" fill="#596166" font-family="monospace" font-size="13">01 / PRIMARY LOCKUP</text>
    </g>
    <g transform="translate(808 24)">
      <rect width="376" height="300" fill="#0d1011"/>
      <path d="M72 62h232M72 150h232M72 238h232M112 42v216M286 62 328 150 286 238" fill="none" stroke="#303537" stroke-width="1"/>
      <circle cx="112" cy="62" r="5" fill="#eef0e8"/><circle cx="112" cy="150" r="5" fill="#eef0e8"/><circle cx="112" cy="238" r="5" fill="#eef0e8"/><rect x="320" y="142" width="16" height="16" fill="#57e389"/>
      <text x="28" y="276" fill="#596166" font-family="monospace" font-size="12">02 / SOURCES → EVIDENCE</text>
    </g>
    <g transform="translate(1208 24)">
      <rect width="368" height="300" fill="#090b0c"/>
      <rect x="28" y="38" width="312" height="210" fill="#111416" stroke="#42484c"/>
      <rect x="28" y="38" width="312" height="30" fill="#0a0c0d"/>
      <circle cx="47" cy="53" r="4" fill="#ff6b6b"/><circle cx="61" cy="53" r="4" fill="#57e389"/>
      <text x="318" y="57" fill="#57e389" font-family="monospace" font-size="11" text-anchor="end">ERX / EXPLORE</text>
      <text x="318" y="105" fill="#eef0e8" font-size="25" font-weight="900" text-anchor="end">ابحث في مصر</text>
      <rect x="50" y="128" width="268" height="38" fill="#090b0c" stroke="#596166"/><text x="298" y="152" fill="#9ca3a8" font-size="12" text-anchor="end">قانون العمل، التضخم...</text>
      <rect x="234" y="184" width="84" height="38" fill="#57e389"/><text x="276" y="208" fill="#071009" font-size="12" font-weight="900" text-anchor="middle">ابحث</text>
      <text x="28" y="276" fill="#596166" font-family="monospace" font-size="12">03 / PRODUCT SURFACE</text>
    </g>
    <g transform="translate(24 348)">
      <rect width="500" height="300" fill="#eef0e8"/>
      <text x="452" y="98" fill="#090b0c" font-size="54" font-weight="900" text-anchor="end">كل معلومة</text>
      <text x="452" y="166" fill="#090b0c" font-size="54" font-weight="900" text-anchor="end">لها مصدر</text>
      <rect x="48" y="212" width="110" height="6" fill="#57e389"/>
      <text x="48" y="270" fill="#596166" font-family="monospace" font-size="12">04 / BRAND PROMISE</text>
    </g>
    <g transform="translate(548 348)">
      <rect width="500" height="300" fill="#090b0c"/>
      <rect x="36" y="48" width="96" height="138" fill="#57e389"/><rect x="144" y="48" width="96" height="138" fill="#eef0e8"/><rect x="252" y="48" width="96" height="138" fill="#9ca3a8"/><rect x="360" y="48" width="96" height="138" fill="#0f1213" stroke="#303537"/>
      <text x="84" y="211" fill="#57e389" font-family="monospace" font-size="10" text-anchor="middle">EVIDENCE</text><text x="192" y="211" fill="#eef0e8" font-family="monospace" font-size="10" text-anchor="middle">PAPER</text><text x="300" y="211" fill="#9ca3a8" font-family="monospace" font-size="10" text-anchor="middle">CONTEXT</text><text x="408" y="211" fill="#596166" font-family="monospace" font-size="10" text-anchor="middle">ARCHIVE</text>
      <text x="36" y="270" fill="#596166" font-family="monospace" font-size="12">05 / COLOR SYSTEM</text>
    </g>
    <g transform="translate(1072 348)">
      <rect width="504" height="300" fill="#0d1011"/>
      <text x="36" y="78" fill="#eef0e8" font-size="56" font-weight="900">Aa أب</text>
      <text x="36" y="132" fill="#9ca3a8" font-size="22">IBM Plex Sans Arabic / System Sans</text>
      <text x="36" y="190" fill="#57e389" font-family="monospace" font-size="22">SOURCE_ID / 2026 / MCP</text>
      <path d="M36 218h432" stroke="#303537"/>
      <text x="36" y="270" fill="#596166" font-family="monospace" font-size="12">06 / TYPE HIERARCHY</text>
    </g>
    <g transform="translate(24 672)">
      <rect width="500" height="304" fill="#0d1011"/>
      <g transform="translate(54 50) rotate(-4 180 90)"><rect width="370" height="190" fill="#eef0e8"/><rect width="18" height="190" fill="#57e389"/><text x="338" y="54" fill="#090b0c" font-family="monospace" font-size="16" font-weight="900" text-anchor="end">ERX / RESEARCH NOTE</text><text x="338" y="102" fill="#090b0c" font-size="27" font-weight="900" text-anchor="end">اسأل. قارن. استشهد.</text><path d="M42 144h296" stroke="#9ca3a8"/><text x="338" y="169" fill="#596166" font-size="12" text-anchor="end">egypt research commons</text></g>
      <text x="34" y="280" fill="#596166" font-family="monospace" font-size="12">07 / RESEARCH CARD</text>
    </g>
    <g transform="translate(548 672)">
      <rect width="500" height="304" fill="#090b0c"/>
      <g opacity=".75"><path d="M36 64c80-40 128 30 208 0s136-22 220 16M36 112c88-28 136 40 230 0s130-10 198 30M36 168c70-36 134 20 218 0s138-10 210 20" fill="none" stroke="#57e389"/><circle cx="114" cy="91" r="6" fill="#eef0e8"/><circle cx="264" cy="125" r="6" fill="#eef0e8"/><circle cx="402" cy="106" r="9" fill="#57e389"/></g>
      <rect x="36" y="215" width="428" height="1" fill="#303537"/>
      <text x="36" y="244" fill="#9ca3a8" font-size="14">MULTIPLE SOURCES / ONE TRACEABLE CONTEXT</text>
      <text x="36" y="280" fill="#596166" font-family="monospace" font-size="12">08 / IMAGE DIRECTION</text>
    </g>
    <g transform="translate(1072 672)">
      <rect width="504" height="304" fill="#0d1011"/>
      <rect x="34" y="44" width="132" height="42" fill="#57e389"/><text x="100" y="70" fill="#071009" font-size="13" font-weight="900" text-anchor="middle">ابدأ البحث ←</text>
      <rect x="180" y="44" width="132" height="42" fill="none" stroke="#57e389"/><text x="246" y="70" fill="#57e389" font-size="13" font-weight="900" text-anchor="middle">اربط وكيلك</text>
      <rect x="326" y="44" width="144" height="42" fill="none" stroke="#42484c"/><text x="398" y="70" fill="#eef0e8" font-family="monospace" font-size="12" text-anchor="middle">SOURCE / LEGAL</text>
      <rect x="34" y="115" width="436" height="58" fill="#090b0c" stroke="#42484c"/><text x="54" y="150" fill="#9ca3a8" font-family="monospace" font-size="13">npx egypt-research-mcp</text>
      <rect x="34" y="200" width="92" height="30" fill="#111416" stroke="#57e389"/><text x="80" y="220" fill="#57e389" font-family="monospace" font-size="10" text-anchor="middle">HEALTHY</text><rect x="138" y="200" width="92" height="30" fill="#111416" stroke="#6ea8fe"/><text x="184" y="220" fill="#6ea8fe" font-family="monospace" font-size="10" text-anchor="middle">OFFICIAL</text>
      <text x="34" y="280" fill="#596166" font-family="monospace" font-size="12">09 / SYSTEM DETAILS</text>
    </g>
  </g>
</svg>
