<svg viewBox="0 0 960 430" xmlns="http://www.w3.org/2000/svg" font-family="'SF Mono',Menlo,Consolas,monospace" role="img" aria-label="تدفق بيانات ERX من المصادر المباشرة عبر الجمع والأرشفة والفهرسة إلى واجهة الويب وMCP وREST والتصدير">
  <rect width="960" height="430" fill="#090b0c"/><rect x=".5" y=".5" width="959" height="429" fill="none" stroke="#29312d"/>
  <defs><path id="a" d="M236 72C320 72 320 166 400 166"/><path id="b" d="M236 160C320 160 320 190 400 190"/><path id="c" d="M236 248C320 248 320 214 400 214"/><path id="d" d="M236 336C320 336 320 238 400 238"/><path id="out" d="M650 202H726"/></defs>
  <g fill="none" stroke="#29312d" stroke-width="1.5"><use href="#a"/><use href="#b"/><use href="#c"/><use href="#d"/><use href="#out"/></g>
  <g fill="#0e1311" stroke="#29312d"><rect x="30" y="42" width="206" height="60"/><rect x="30" y="130" width="206" height="60"/><rect x="30" y="218" width="206" height="60"/><rect x="30" y="306" width="206" height="60"/></g>
  <g fill="#eef0e8" font-size="14" font-weight="700"><text x="52" y="68">RSS / XML</text><text x="52" y="156">HTML / SITEMAP</text><text x="52" y="244">OFFICIAL APIs</text><text x="52" y="332">PDF DOCUMENTS</text></g>
  <g fill="#9ca3a0" font-size="10.5"><text x="52" y="87">direct feeds · source policies</text><text x="52" y="175">robots.txt · per-source delay</text><text x="52" y="263">structured live records</text><text x="52" y="351">text layer · Arabic OCR fallback</text></g>
  <rect x="394" y="132" width="262" height="140" fill="#0e1311" stroke="#57e389" stroke-width="2"/>
  <rect x="388" y="126" width="274" height="152" fill="none" stroke="#57e389" opacity="0"><animate attributeName="opacity" values="0;.35;0" dur="3.2s" repeatCount="indefinite"/></rect>
  <text x="525" y="162" fill="#eef0e8" font-size="16" font-weight="700" text-anchor="middle">ERX RESEARCH CORE</text>
  <text x="525" y="190" fill="#9ca3a0" font-size="11.5" text-anchor="middle">collect → normalize → version → archive</text>
  <text x="525" y="214" fill="#9ca3a0" font-size="11.5" text-anchor="middle">SQLite FTS5 + semantic index</text>
  <text x="525" y="238" fill="#9ca3a0" font-size="11.5" text-anchor="middle">entities · events · claims · stories</text>
  <text x="525" y="260" fill="#57e389" font-size="11.5" font-weight="700" text-anchor="middle">original source retained</text>
  <rect x="728" y="148" width="202" height="108" fill="#0e1311" stroke="#29312d"/>
  <text x="829" y="178" fill="#eef0e8" font-size="14" font-weight="700" text-anchor="middle">RESEARCH CLIENTS</text>
  <text x="829" y="205" fill="#9ca3a0" font-size="11" text-anchor="middle">Web UI · MCP · REST</text>
  <text x="829" y="226" fill="#9ca3a0" font-size="11" text-anchor="middle">CSV · JSONL · BibTeX · RIS</text>
  <text x="690" y="192" fill="#9ca3a0" font-size="10" text-anchor="middle">stdio</text><text x="690" y="218" fill="#9ca3a0" font-size="10" text-anchor="middle">HTTP</text>
  <circle r="4" fill="#57e389"><animateMotion dur="3s" begin="0s" repeatCount="indefinite"><mpath href="#a"/></animateMotion></circle><circle r="4" fill="#57e389"><animateMotion dur="3s" begin=".75s" repeatCount="indefinite"><mpath href="#b"/></animateMotion></circle><circle r="4" fill="#57e389"><animateMotion dur="3s" begin="1.5s" repeatCount="indefinite"><mpath href="#c"/></animateMotion></circle><circle r="4" fill="#57e389"><animateMotion dur="3s" begin="2.25s" repeatCount="indefinite"><mpath href="#d"/></animateMotion></circle><circle r="4" fill="#57e389"><animateMotion dur="1.6s" repeatCount="indefinite"><mpath href="#out"/></animateMotion></circle>
  <text x="480" y="405" fill="#9ca3a0" font-size="12" text-anchor="middle">direct sources in · traceable evidence out</text>
</svg>
