<svg xmlns="http://www.w3.org/2000/svg" viewBox="0 0 1200 500" role="img" aria-labelledby="title desc">
  <title id="title">ERX — Egypt Research Commons</title>
  <desc id="desc">MCP-first research infrastructure for source-backed Egyptian research</desc>
  <rect width="1200" height="500" fill="#090b0c"/>
  <path d="M0 88H1200M0 420H1200M760 0V500" stroke="#303537"/>
  <g transform="translate(64 56)">
    <path d="M18 9h-8v46h8M18 17h20M18 32h20M18 47h20" fill="none" stroke="#eef0e8" stroke-width="4"/>
    <path d="M38 17 51 32 38 47M45 32h8" fill="none" stroke="#57e389" stroke-width="4"/>
    <rect x="49" y="28" width="8" height="8" fill="#57e389"/>
  </g>
  <text x="180" y="92" fill="#57e389" font-family="Arial, sans-serif" font-size="24" font-weight="700" letter-spacing="4">ERX / EGYPT RESEARCH COMMONS</text>
  <text x="64" y="220" fill="#eef0e8" font-family="Arial, sans-serif" font-size="70" font-weight="800">كل معلومة لها مصدر</text>
  <text x="64" y="274" fill="#a5adaf" font-family="Arial, sans-serif" font-size="28">بحث موثّق للشأن المصري — للباحث والوكيل الذكي</text>
  <text x="64" y="365" fill="#57e389" font-family="monospace" font-size="22">ASK → 21 MCP TOOLS → CITED EVIDENCE</text>
  <g transform="translate(800 96)">
    <rect width="320" height="260" fill="#111416" stroke="#57e389"/>
    <text x="28" y="48" fill="#57e389" font-family="monospace" font-size="17">MCP / LIVE</text>
    <text x="28" y="96" fill="#eef0e8" font-family="monospace" font-size="34" font-weight="700">21 TOOLS</text>
    <text x="28" y="138" fill="#a5adaf" font-family="monospace" font-size="18">602 DOCUMENTS</text>
    <text x="28" y="174" fill="#a5adaf" font-family="monospace" font-size="18">24 HEALTHY SOURCES</text>
    <text x="28" y="210" fill="#a5adaf" font-family="monospace" font-size="18">6 LIVE DATASETS</text>
    <rect x="28" y="228" width="110" height="10" fill="#57e389"/>
    <rect x="148" y="228" width="72" height="10" fill="#6ea8fe"/>
    <rect x="230" y="228" width="62" height="10" fill="#f2c14e"/>
  </g>
  <text x="64" y="454" fill="#6f797c" font-family="monospace" font-size="16">erx-mcp.zad.tools  /  OPEN RESEARCH INFRASTRUCTURE</text>
</svg>
